<?xml version="1.0" standalone="no"?>
<!DOCTYPE svg PUBLIC "-//W3C//DTD SVG 20010904//EN"
 "http://www.w3.org/TR/2001/REC-SVG-20010904/DTD/svg10.dtd">
<svg version="1.0" xmlns="http://www.w3.org/2000/svg"
 width="500.000000pt" height="208.000000pt" viewBox="0 0 500.000000 208.000000"
 preserveAspectRatio="xMidYMid meet">

<g transform="translate(0.000000,208.000000) scale(0.100000,-0.100000)"
fill="#e0f7fa" stroke="none">
<path d="M2255 2074 c-557 -23 -1082 -125 -1491 -289 -254 -102 -429 -210
-570 -349 -74 -74 -99 -107 -132 -176 -49 -99 -67 -181 -57 -264 48 -431 707
-798 1690 -941 271 -39 427 -49 805 -49 284 0 415 4 540 17 294 31 515 68 734
123 659 165 1092 436 1200 751 40 117 29 232 -36 363 -91 185 -329 370 -653
505 -357 150 -760 243 -1258 290 -154 14 -614 26 -772 19z m635 -104 c829 -49
1550 -281 1851 -597 80 -84 123 -155 145 -237 122 -459 -625 -888 -1761 -1010
-873 -94 -1818 18 -2423 287 -280 125 -469 275 -552 439 -65 129 -64 255 3
383 42 80 179 218 290 290 361 235 965 398 1647 445 80 5 150 10 157 10 9 0 9
-8 3 -27 -5 -16 -45 -156 -90 -313 -45 -157 -113 -391 -150 -520 -76 -260 -86
-312 -71 -352 8 -22 17 -28 41 -28 124 0 457 322 573 555 61 121 71 159 71
280 0 122 -20 199 -89 335 -19 38 -35 71 -35 72 0 5 210 -1 390 -12z"/>
<path d="M2045 1833 c-656 -59 -1206 -242 -1453 -483 -443 -431 115 -922 1228
-1079 405 -58 998 -56 1405 5 435 64 805 187 1059 351 101 65 206 174 247 259
31 62 34 77 34 154 0 75 -4 92 -32 151 -109 222 -438 414 -915 535 -75 18
-139 34 -141 34 -3 0 -8 -30 -12 -67 -26 -250 -186 -470 -526 -729 -151 -114
-241 -170 -429 -263 -223 -111 -327 -143 -500 -157 -60 -5 -85 -2 -125 13 -94
35 -116 109 -76 258 20 75 240 839 272 944 21 69 23 82 12 79 -5 -1 -26 -3
-48 -5z m1115 -1148 l0 -55 -100 0 c-76 0 -100 -3 -100 -13 0 -16 32 -46 83
-76 43 -26 57 -48 57 -89 0 -51 -56 -84 -174 -101 -153 -22 -528 -33 -716 -21
-167 11 -506 53 -518 64 -3 3 0 24 7 47 11 38 14 40 39 34 131 -34 531 -59
690 -44 142 14 271 56 286 94 16 43 11 52 -73 114 -19 14 -23 23 -17 44 12 51
39 56 299 57 l237 0 0 -55z"/>
</g>
</svg>
